<svg xmlns="http://www.w3.org/2000/svg" viewBox="0 0 100 120" width="100" height="120">
  <!-- Doodle logs -->
  <path d="M8,108 Q15,106 22,108 Q30,110 38,108 Q45,106 52,108 Q48,112 40,114 Q32,116 24,114 Q16,112 8,108" 
        fill="#92400e" stroke="#78350f" stroke-width="2"/>
  
  <path d="M48,108 Q55,106 62,108 Q70,110 78,108 Q85,106 92,108 Q88,112 80,114 Q72,116 64,114 Q56,112 48,108" 
        fill="#92400e" stroke="#78350f" stroke-width="2"/>
  
  <path d="M32,103 Q40,101 48,103 Q56,105 64,103 Q68,105 65,107 Q57,109 49,107 Q41,105 33,107 Q29,105 32,103" 
        fill="#a3a3a3" stroke="#6b7280" stroke-width="1.5"/>
  
  <!-- Doodle fire flames -->
  <path d="M38,100 Q33,95 35,85 Q37,75 35,65 Q33,55 38,45 Q42,35 45,45 Q48,55 46,65 Q44,75 48,85 Q52,95 50,100 Q48,95 45,90 Q42,95 38,100" 
        fill="#dc2626" stroke="#b91c1c" stroke-width="1.5" opacity="0.8"/>
  
  <path d="M45,98 Q42,93 44,83 Q46,73 44,63 Q42,53 46,43 Q49,33 52,43 Q55,53 53,63 Q51,73 55,83 Q59,93 57,98 Q55,93 52,88 Q49,93 45,98" 
        fill="#f59e0b" stroke="#d97706" stroke-width="1.5" opacity="0.9"/>
  
  <path d="M52,96 Q49,91 51,81 Q53,71 51,61 Q49,51 53,41 Q56,31 59,41 Q62,51 60,61 Q58,71 62,81 Q66,91 64,96 Q62,91 59,86 Q56,91 52,96" 
        fill="#fbbf24" stroke="#f59e0b" stroke-width="1.5" opacity="0.7"/>
  
  <!-- Smaller wiggly flames -->
  <path d="M42,88 Q40,83 41,78 Q42,73 41,68 Q40,63 42,58 Q44,53 46,58 Q48,63 47,68 Q46,73 48,78 Q50,83 49,88 Q47,83 45,80 Q43,83 42,88" 
        fill="#fbbf24" opacity="0.8"/>
  
  <path d="M54,86 Q52,81 53,76 Q54,71 53,66 Q52,61 54,56 Q56,51 58,56 Q60,61 59,66 Q58,71 60,76 Q62,81 61,86 Q59,81 57,78 Q55,81 54,86" 
        fill="#fbbf24" opacity="0.8"/>
  
  <!-- Dancing sparks -->
  <circle cx="25" cy="70" r="2" fill="#fbbf24" stroke="#f59e0b" stroke-width="0.5" opacity="0.8"/>
  <circle cx="75" cy="65" r="1.5" fill="#fbbf24" stroke="#f59e0b" stroke-width="0.5" opacity="0.7"/>
  <circle cx="35" cy="55" r="2" fill="#f59e0b" stroke="#dc2626" stroke-width="0.5" opacity="0.9"/>
  <circle cx="65" cy="50" r="1.5" fill="#f59e0b" stroke="#dc2626" stroke-width="0.5" opacity="0.8"/>
  <circle cx="20" cy="80" r="1" fill="#fbbf24" opacity="0.6"/>
  <circle cx="80" cy="75" r="1" fill="#f59e0b" opacity="0.7"/>
  
  <!-- Smoke wisps -->
  <path d="M48,35 Q50,30 52,25 Q54,20 52,15 Q50,10 52,5" 
        stroke="#9ca3af" stroke-width="2" fill="none" opacity="0.4"/>
  <path d="M52,38 Q54,33 56,28 Q58,23 56,18 Q54,13 56,8" 
        stroke="#9ca3af" stroke-width="1.5" fill="none" opacity="0.3"/>
</svg> 