<svg xmlns="http://www.w3.org/2000/svg" viewBox="0 0 80 80" width="80" height="80">
  <!-- Doodle compass body -->
  <path d="M40,5 Q50,8 60,15 Q68,25 72,35 Q75,45 72,55 Q68,65 60,72 Q50,78 40,75 Q30,78 20,72 Q12,65 8,55 Q5,45 8,35 Q12,25 20,15 Q30,8 40,5" 
        fill="#f59e0b" stroke="#d97706" stroke-width="2"/>
  
  <path d="M40,10 Q48,12 55,18 Q62,26 65,35 Q68,44 65,53 Q62,62 55,68 Q48,74 40,72 Q32,74 25,68 Q18,62 15,53 Q12,44 15,35 Q18,26 25,18 Q32,12 40,10" 
        fill="#fbbf24" stroke="#f59e0b" stroke-width="1.5"/>
  
  <!-- Doodle compass needle -->
  <path d="M40,18 Q42,17 44,20 Q46,25 45,30 Q44,35 42,38 Q40,42 38,38 Q36,35 35,30 Q34,25 36,20 Q38,17 40,18" 
        fill="#dc2626" stroke="#b91c1c" stroke-width="1"/>
  
  <path d="M40,42 Q38,45 36,50 Q34,55 35,60 Q36,65 38,68 Q40,70 42,68 Q44,65 45,60 Q46,55 44,50 Q42,45 40,42" 
        fill="#ffffff" stroke="#d1d5db" stroke-width="1"/>
  
  <!-- Wiggly center point -->
  <circle cx="40" cy="40" r="4" fill="#374151" stroke="#1f2937" stroke-width="1"/>
  <circle cx="40" cy="40" r="2" fill="#6b7280"/>
  
  <!-- Doodle direction markers -->
  <circle cx="40" cy="15" r="6" fill="#e5e7eb" stroke="#374151" stroke-width="1"/>
  <text x="40" y="18" text-anchor="middle" fill="#374151" font-size="6" font-weight="bold">N</text>
  
  <circle cx="65" cy="40" r="6" fill="#e5e7eb" stroke="#374151" stroke-width="1"/>
  <text x="65" y="43" text-anchor="middle" fill="#374151" font-size="6" font-weight="bold">E</text>
  
  <circle cx="40" cy="65" r="6" fill="#e5e7eb" stroke="#374151" stroke-width="1"/>
  <text x="40" y="68" text-anchor="middle" fill="#374151" font-size="6" font-weight="bold">S</text>
  
  <circle cx="15" cy="40" r="6" fill="#e5e7eb" stroke="#374151" stroke-width="1"/>
  <text x="15" y="43" text-anchor="middle" fill="#374151" font-size="6" font-weight="bold">W</text>
  
  <!-- Decorative tick marks -->
  <path d="M40,8 Q42,10 40,12" stroke="#d97706" stroke-width="1.5" fill="none"/>
  <path d="M72,38 Q70,40 72,42" stroke="#d97706" stroke-width="1.5" fill="none"/>
  <path d="M40,72 Q38,70 40,68" stroke="#d97706" stroke-width="1.5" fill="none"/>
  <path d="M8,42 Q10,40 8,38" stroke="#d97706" stroke-width="1.5" fill="none"/>
</svg> 