<svg xmlns="http://www.w3.org/2000/svg" viewBox="0 0 250 80" width="250" height="80">
  <!-- Doodle winding trail path -->
  <path d="M8,62 Q15,58 25,55 Q35,52 45,48 Q55,44 65,42 Q75,40 85,44 Q95,48 105,52 Q115,56 125,58 Q135,60 145,56 Q155,52 165,48 Q175,44 185,40 Q195,36 205,32 Q215,28 225,32 Q235,36 245,40 Q248,42 245,44 Q235,40 225,36 Q215,32 205,36 Q195,40 185,44 Q175,48 165,52 Q155,56 145,60 Q135,64 125,62 Q115,60 105,56 Q95,52 85,48 Q75,44 65,46 Q55,48 45,52 Q35,56 25,59 Q15,62 8,66" 
        fill="none" stroke="#a3a3a3" stroke-width="6" opacity="0.8"/>
  
  <!-- Doodle trail edges -->
  <path d="M10,58 Q20,54 30,51 Q40,48 50,44 Q60,40 70,38 Q80,36 90,40 Q100,44 110,48 Q120,52 130,54 Q140,56 150,52 Q160,48 170,44 Q180,40 190,36 Q200,32 210,28 Q220,24 230,28 Q240,32 248,36" 
        fill="none" stroke="#d4d4d8" stroke-width="3" opacity="0.6"/>
  
  <path d="M10,66 Q20,62 30,59 Q40,56 50,52 Q60,48 70,46 Q80,44 90,48 Q100,52 110,56 Q120,60 130,62 Q140,64 150,60 Q160,56 170,52 Q180,48 190,44 Q200,40 210,36 Q220,32 230,36 Q240,40 248,44" 
        fill="none" stroke="#d4d4d8" stroke-width="3" opacity="0.6"/>
  
  <!-- Doodle trail markers/rocks -->
  <path d="M28,57 Q32,55 34,57 Q32,59 28,59 Q26,57 28,57" fill="#6b7280" stroke="#4b5563" stroke-width="1"/>
  <path d="M78,50 Q80,48 82,50 Q80,52 78,52 Q76,50 78,50" fill="#6b7280" stroke="#4b5563" stroke-width="1"/>
  <path d="M148,54 Q152,52 154,54 Q152,56 148,56 Q146,54 148,54" fill="#6b7280" stroke="#4b5563" stroke-width="1"/>
  <path d="M198,40 Q200,38 202,40 Q200,42 198,42 Q196,40 198,40" fill="#6b7280" stroke="#4b5563" stroke-width="1"/>
  
  <!-- Doodle grass tufts -->
  <path d="M18,67 Q20,65 22,67 Q24,69 22,71 Q20,73 18,71 Q16,69 18,67" fill="#10b981" stroke="#047857" stroke-width="1"/>
  <path d="M63,57 Q65,55 67,57 Q69,59 67,61 Q65,63 63,61 Q61,59 63,57" fill="#10b981" stroke="#047857" stroke-width="1"/>
  <path d="M118,67 Q120,65 122,67 Q124,69 122,71 Q120,73 118,71 Q116,69 118,67" fill="#10b981" stroke="#047857" stroke-width="1"/>
  <path d="M178,52 Q180,50 182,52 Q184,54 182,56 Q180,58 178,56 Q176,54 178,52" fill="#10b981" stroke="#047857" stroke-width="1"/>
  
  <!-- Doodle footprint markers -->
  <path d="M38,54 Q40,52 42,54 Q40,56 38,56 Q36,54 38,54" fill="#92400e" opacity="0.5" stroke="#78350f" stroke-width="0.5"/>
  <path d="M43,51 Q45,49 47,51 Q45,53 43,53 Q41,51 43,51" fill="#92400e" opacity="0.5" stroke="#78350f" stroke-width="0.5"/>
  <path d="M98,55 Q100,53 102,55 Q100,57 98,57 Q96,55 98,55" fill="#92400e" opacity="0.5" stroke="#78350f" stroke-width="0.5"/>
  <path d="M103,52 Q105,50 107,52 Q105,54 103,54 Q101,52 103,52" fill="#92400e" opacity="0.5" stroke="#78350f" stroke-width="0.5"/>
  
  <!-- Additional doodle elements -->
  <path d="M70,35 Q72,33 74,35 Q72,37 70,37 Q68,35 70,35" fill="#d4d4d8" opacity="0.7"/>
  <path d="M160,65 Q162,63 164,65 Q162,67 160,67 Q158,65 160,65" fill="#d4d4d8" opacity="0.7"/>
  
  <!-- Small pebbles -->
  <circle cx="55" cy="38" r="1" fill="#9ca3af" opacity="0.6"/>
  <circle cx="125" cy="68" r="1" fill="#9ca3af" opacity="0.6"/>
  <circle cx="185" cy="58" r="1" fill="#9ca3af" opacity="0.6"/>
</svg> 