<svg xmlns="http://www.w3.org/2000/svg" viewBox="0 0 70 90" width="70" height="90">
  <!-- Left doodle boot -->
  <path d="M8,72 Q5,78 12,82 Q18,85 25,82 Q28,78 25,72 Q22,68 20,65 Q18,62 16,58 Q14,54 12,50 Q10,46 8,42 Q6,38 8,35 Q10,32 14,35 Q18,38 20,42 Q22,46 20,50 Q18,54 16,58 Q14,62 12,66 Q10,70 8,72" 
        fill="#92400e" stroke="#451a03" stroke-width="1.5"/>
  
  <!-- Left boot sole -->
  <ellipse cx="15" cy="75" rx="12" ry="6" fill="#451a03" stroke="#92400e" stroke-width="1"/>
  
  <!-- Wiggly laces left -->
  <path d="M10,40 Q12,38 14,40 Q16,42 18,40 Q20,38 22,40" stroke="#f59e0b" stroke-width="2" fill="none"/>
  <path d="M10,48 Q12,46 14,48 Q16,50 18,48 Q20,46 22,48" stroke="#f59e0b" stroke-width="2" fill="none"/>
  <path d="M10,56 Q12,54 14,56 Q16,58 18,56 Q20,54 22,56" stroke="#f59e0b" stroke-width="2" fill="none"/>
  
  <!-- Right doodle boot -->
  <path d="M48,77 Q45,83 52,87 Q58,90 65,87 Q68,83 65,77 Q62,73 60,70 Q58,67 56,63 Q54,59 52,55 Q50,51 48,47 Q46,43 48,40 Q50,37 54,40 Q58,43 60,47 Q62,51 60,55 Q58,59 56,63 Q54,67 52,71 Q50,75 48,77" 
        fill="#92400e" stroke="#451a03" stroke-width="1.5"/>
  
  <!-- Right boot sole -->
  <ellipse cx="55" cy="80" rx="12" ry="6" fill="#451a03" stroke="#92400e" stroke-width="1"/>
  
  <!-- Wiggly laces right -->
  <path d="M50,45 Q52,43 54,45 Q56,47 58,45 Q60,43 62,45" stroke="#f59e0b" stroke-width="2" fill="none"/>
  <path d="M50,53 Q52,51 54,53 Q56,55 58,53 Q60,51 62,53" stroke="#f59e0b" stroke-width="2" fill="none"/>
  <path d="M50,61 Q52,59 54,61 Q56,63 58,61 Q60,59 62,61" stroke="#f59e0b" stroke-width="2" fill="none"/>
  
  <!-- Boot eyelets -->
  <circle cx="12" cy="40" r="1" fill="#374151"/>
  <circle cx="20" cy="40" r="1" fill="#374151"/>
  <circle cx="12" cy="48" r="1" fill="#374151"/>
  <circle cx="20" cy="48" r="1" fill="#374151"/>
  
  <circle cx="52" cy="45" r="1" fill="#374151"/>
  <circle cx="60" cy="45" r="1" fill="#374151"/>
  <circle cx="52" cy="53" r="1" fill="#374151"/>
  <circle cx="60" cy="53" r="1" fill="#374151"/>
</svg> 