<?xml version="1.0" encoding="UTF-8"?>
<svg width="80" height="80" viewBox="0 0 80 80" fill="none" xmlns="http://www.w3.org/2000/svg">
  <!-- Background circle -->
  <circle cx="40" cy="40" r="35" fill="#fef3c7" stroke="#f59e0b" stroke-width="2" opacity="0.8"/>
  
  <!-- Person 1 -->
  <circle cx="25" cy="25" r="8" fill="#fde68a" stroke="#92400e" stroke-width="2"/>
  <path d="M25 33 L25 55" stroke="#92400e" stroke-width="3" stroke-linecap="round"/>
  <path d="M17 45 L25 40 L33 45" stroke="#92400e" stroke-width="3" stroke-linecap="round"/>
  <path d="M21 55 L25 50 L29 55" stroke="#92400e" stroke-width="3" stroke-linecap="round"/>
  
  <!-- Person 2 -->
  <circle cx="55" cy="25" r="7" fill="#fde68a" stroke="#92400e" stroke-width="2"/>
  <path d="M55 32 L55 53" stroke="#92400e" stroke-width="3" stroke-linecap="round"/>
  <path d="M48 42 L55 38 L62 42" stroke="#92400e" stroke-width="3" stroke-linecap="round"/>
  <path d="M51 53 L55 48 L59 53" stroke="#92400e" stroke-width="3" stroke-linecap="round"/>
  
  <!-- Person 3 (child) -->
  <circle cx="40" cy="35" r="6" fill="#fde68a" stroke="#92400e" stroke-width="2"/>
  <path d="M40 41 L40 58" stroke="#92400e" stroke-width="3" stroke-linecap="round"/>
  <path d="M34 50 L40 46 L46 50" stroke="#92400e" stroke-width="3" stroke-linecap="round"/>
  <path d="M36 58 L40 53 L44 58" stroke="#92400e" stroke-width="3" stroke-linecap="round"/>
  
  <!-- Connecting hearts/love -->
  <path d="M30 30 Q35 25 40 30 Q45 25 50 30 Q50 35 40 45 Q35 50 30 45 Q20 35 30 30" fill="#ec4899" opacity="0.6"/>
  
  <!-- Small decorative elements -->
  <circle cx="15" cy="60" r="2" fill="#22c55e"/>
  <circle cx="65" cy="60" r="2" fill="#22c55e"/>
  <path d="M10 15 L12 21 L18 19 L12 23 L14 29 L10 25 L6 29 L8 23 L2 19 L8 21 Z" fill="#fbbf24" opacity="0.7"/>
  <path d="M68 15 L70 21 L76 19 L70 23 L72 29 L68 25 L64 29 L66 23 L60 19 L66 21 Z" fill="#fbbf24" opacity="0.7"/>
</svg> 