<?xml version="1.0" encoding="UTF-8"?>
<svg width="400" height="300" viewBox="0 0 400 300" fill="none" xmlns="http://www.w3.org/2000/svg">
  <!-- Background -->
  <rect width="400" height="300" fill="#f0f9ff"/>
  
  <!-- Ground -->
  <path d="M0 250 Q200 240 400 250 L400 300 L0 300 Z" fill="#86efac" opacity="0.3"/>
  
  <!-- Vendor Tables -->
  <rect x="50" y="180" width="80" height="50" fill="#fbbf24" stroke="#92400e" stroke-width="2" rx="4"/>
  <rect x="160" y="185" width="80" height="45" fill="#fb7185" stroke="#be123c" stroke-width="2" rx="4"/>
  <rect x="270" y="175" width="80" height="55" fill="#60a5fa" stroke="#1d4ed8" stroke-width="2" rx="4"/>
  
  <!-- Table Items -->
  <!-- Table 1 items -->
  <circle cx="70" cy="170" r="8" fill="#ef4444"/>
  <circle cx="90" cy="165" r="6" fill="#f97316"/>
  <circle cx="110" cy="168" r="7" fill="#eab308"/>
  
  <!-- Table 2 items -->
  <rect x="175" y="175" width="12" height="8" fill="#84cc16" rx="2"/>
  <rect x="190" y="172" width="10" height="10" fill="#06b6d4" rx="2"/>
  <rect x="205" y="174" width="14" height="9" fill="#8b5cf6" rx="2"/>
  
  <!-- Table 3 items -->
  <circle cx="285" cy="165" r="9" fill="#ec4899"/>
  <circle cx="305" cy="162" r="7" fill="#14b8a6"/>
  <circle cx="325" cy="168" r="8" fill="#f59e0b"/>
  
  <!-- People (hand-drawn style) -->
  <!-- Person 1 -->
  <circle cx="30" cy="140" r="12" fill="#fde68a" stroke="#92400e" stroke-width="2"/>
  <path d="M30 152 L30 200" stroke="#92400e" stroke-width="3" stroke-linecap="round"/>
  <path d="M18 165 L30 160 L42 165" stroke="#92400e" stroke-width="3" stroke-linecap="round"/>
  <path d="M24 200 L30 190 L36 200" stroke="#92400e" stroke-width="3" stroke-linecap="round"/>
  
  <!-- Person 2 -->
  <circle cx="140" cy="145" r="10" fill="#fde68a" stroke="#92400e" stroke-width="2"/>
  <path d="M140 155 L140 195" stroke="#92400e" stroke-width="3" stroke-linecap="round"/>
  <path d="M130 170 L140 165 L150 170" stroke="#92400e" stroke-width="3" stroke-linecap="round"/>
  <path d="M135 195 L140 185 L145 195" stroke="#92400e" stroke-width="3" stroke-linecap="round"/>
  
  <!-- Person 3 -->
  <circle cx="250" cy="135" r="11" fill="#fde68a" stroke="#92400e" stroke-width="2"/>
  <path d="M250 146 L250 190" stroke="#92400e" stroke-width="3" stroke-linecap="round"/>
  <path d="M238 160 L250 155 L262 160" stroke="#92400e" stroke-width="3" stroke-linecap="round"/>
  <path d="M244 190 L250 180 L256 190" stroke="#92400e" stroke-width="3" stroke-linecap="round"/>
  
  <!-- Person 4 -->
  <circle cx="360" cy="150" r="9" fill="#fde68a" stroke="#92400e" stroke-width="2"/>
  <path d="M360 159 L360 200" stroke="#92400e" stroke-width="3" stroke-linecap="round"/>
  <path d="M350 175 L360 170 L370 175" stroke="#92400e" stroke-width="3" stroke-linecap="round"/>
  <path d="M355 200 L360 190 L365 200" stroke="#92400e" stroke-width="3" stroke-linecap="round"/>
  
  <!-- Trees/Plants -->
  <path d="M10 120 Q20 100 30 120 Q25 110 20 120 Q15 115 10 120" fill="#22c55e"/>
  <rect x="18" y="120" width="4" height="20" fill="#92400e"/>
  
  <path d="M370 110 Q385 85 395 110 Q390 95 385 110 Q380 105 370 110" fill="#16a34a"/>
  <rect x="383" y="110" width="4" height="25" fill="#92400e"/>
  
  <!-- Market Sign -->
  <rect x="150" y="80" width="100" height="40" fill="#fef3c7" stroke="#92400e" stroke-width="2" rx="5"/>
  <text x="200" y="95" text-anchor="middle" fill="#92400e" font-family="sans-serif" font-size="10" font-weight="bold">BACKPACK</text>
  <text x="200" y="110" text-anchor="middle" fill="#92400e" font-family="sans-serif" font-size="10" font-weight="bold">MARKET</text>
  
  <!-- Decorative swirls -->
  <path d="M80 60 Q90 50 100 60 Q110 70 120 60" stroke="#16a34a" stroke-width="2" fill="none" opacity="0.6"/>
  <path d="M280 50 Q290 40 300 50 Q310 60 320 50" stroke="#16a34a" stroke-width="2" fill="none" opacity="0.6"/>
  
  <!-- Birds -->
  <path d="M60 40 Q65 35 70 40 Q75 35 80 40" stroke="#374151" stroke-width="2" fill="none"/>
  <path d="M320 30 Q325 25 330 30 Q335 25 340 30" stroke="#374151" stroke-width="2" fill="none"/>
</svg> 