<svg xmlns="http://www.w3.org/2000/svg" viewBox="0 0 400 80" width="400" height="80">
  <!-- Doodle Mountain Range -->
  <path d="M0,80 Q20,75 35,65 Q50,45 75,25 Q85,18 95,22 Q105,15 125,35 Q140,45 155,25 Q170,8 185,12 Q200,15 215,30 Q235,40 255,25 Q275,12 295,18 Q315,25 335,35 Q355,45 375,40 Q390,35 400,45 L400,80 Z" 
        fill="#374151" stroke="#1f2937" stroke-width="1.5" opacity="0.7"/>
  
  <!-- Doodle peaks with wiggly lines -->
  <path d="M0,80 Q15,78 30,70 Q45,60 65,50 Q80,35 100,40 Q120,45 140,55 Q160,65 180,50 Q200,35 225,40 Q250,45 275,50 Q300,55 325,45 Q350,35 375,50 Q388,55 400,60 L400,80 Z" 
        fill="#1f2937" stroke="#374151" stroke-width="1" opacity="0.5"/>
  
  <!-- Small doodle clouds -->
  <circle cx="50" cy="20" r="8" fill="#e5e7eb" opacity="0.4" stroke="#d1d5db" stroke-width="0.5"/>
  <circle cx="60" cy="18" r="6" fill="#e5e7eb" opacity="0.4" stroke="#d1d5db" stroke-width="0.5"/>
  <circle cx="45" cy="18" r="5" fill="#e5e7eb" opacity="0.4" stroke="#d1d5db" stroke-width="0.5"/>
  
  <circle cx="300" cy="15" r="7" fill="#e5e7eb" opacity="0.3" stroke="#d1d5db" stroke-width="0.5"/>
  <circle cx="310" cy="13" r="5" fill="#e5e7eb" opacity="0.3" stroke="#d1d5db" stroke-width="0.5"/>
  <circle cx="295" cy="13" r="4" fill="#e5e7eb" opacity="0.3" stroke="#d1d5db" stroke-width="0.5"/>
</svg> 