<svg xmlns="http://www.w3.org/2000/svg" viewBox="0 0 200 150" width="200" height="150">
  <!-- Doodle Tree 1 - Large -->
  <path d="M62,140 Q65,138 68,135 Q70,130 68,125 Q66,120 68,115 Q70,110 68,105 Q66,100 68,95 Q70,90 68,85 Q66,80 68,75 Q70,70 68,65 Q66,60 68,55 Q70,50 68,45 Q66,40 70,35 Q74,40 72,45 Q74,50 72,55 Q74,60 72,65 Q74,70 72,75 Q74,80 72,85 Q74,90 72,95 Q74,100 72,105 Q74,110 72,115 Q74,120 72,125 Q74,130 72,135 Q75,138 78,140 Q75,142 70,140 Q68,138 66,140 Q64,142 62,140" 
        fill="#10b981" stroke="#047857" stroke-width="2"/>
  
  <!-- Tree 1 trunk -->
  <path d="M68,140 Q66,145 70,148 Q72,145 70,140" 
        fill="#92400e" stroke="#78350f" stroke-width="1.5"/>
  
  <!-- Doodle Tree 2 - Medium -->
  <path d="M122,145 Q125,143 128,140 Q130,135 128,130 Q126,125 128,120 Q130,115 128,110 Q126,105 128,100 Q130,95 128,90 Q126,85 130,80 Q134,85 132,90 Q134,95 132,100 Q134,105 132,110 Q134,115 132,120 Q134,125 132,130 Q134,135 132,140 Q135,143 138,145 Q135,147 130,145 Q128,143 126,145 Q124,147 122,145" 
        fill="#10b981" stroke="#047857" stroke-width="2"/>
  
  <!-- Tree 2 trunk -->
  <path d="M128,145 Q126,148 130,150 Q132,148 130,145" 
        fill="#92400e" stroke="#78350f" stroke-width="1.5"/>
  
  <!-- Doodle Tree 3 - Small -->
  <path d="M32,135 Q34,133 36,130 Q38,125 36,120 Q34,115 36,110 Q38,105 36,100 Q34,95 38,90 Q42,95 40,100 Q42,105 40,110 Q42,115 40,120 Q42,125 40,130 Q42,133 44,135 Q42,137 38,135 Q36,133 34,135 Q32,137 32,135" 
        fill="#10b981" stroke="#047857" stroke-width="2"/>
  
  <!-- Tree 3 trunk -->
  <path d="M36,135 Q34,142 38,148 Q40,142 38,135" 
        fill="#92400e" stroke="#78350f" stroke-width="1.5"/>
  
  <!-- Doodle Tree 4 - Large -->
  <path d="M162,140 Q165,138 168,135 Q170,130 168,125 Q166,120 168,115 Q170,110 168,105 Q166,100 168,95 Q170,90 168,85 Q166,80 168,75 Q170,70 168,65 Q166,60 168,55 Q170,50 168,45 Q166,40 170,35 Q174,40 172,45 Q174,50 172,55 Q174,60 172,65 Q174,70 172,75 Q174,80 172,85 Q174,90 172,95 Q174,100 172,105 Q174,110 172,115 Q174,120 172,125 Q174,130 172,135 Q175,138 178,140 Q175,142 170,140 Q168,138 166,140 Q164,142 162,140" 
        fill="#10b981" stroke="#047857" stroke-width="2"/>
  
  <!-- Tree 4 trunk -->
  <path d="M168,140 Q166,145 170,148 Q172,145 170,140" 
        fill="#92400e" stroke="#78350f" stroke-width="1.5"/>
  
  <!-- Doodle Tree 5 - Small background -->
  <path d="M12,140 Q14,138 16,135 Q18,130 16,125 Q14,120 16,115 Q18,110 14,105 Q18,110 16,115 Q18,120 16,125 Q18,130 16,135 Q18,138 20,140 Q18,142 14,140 Q12,138 12,140" 
        fill="#10b981" stroke="#047857" stroke-width="2" opacity="0.7"/>
  
  <!-- Tree 5 trunk -->
  <path d="M14,140 Q12,145 16,148 Q18,145 16,140" 
        fill="#92400e" stroke="#78350f" stroke-width="1.5" opacity="0.7"/>
  
  <!-- Scattered pine needles -->
  <path d="M45,120 Q47,118 49,120" stroke="#10b981" stroke-width="1" fill="none" opacity="0.6"/>
  <path d="M85,110 Q87,108 89,110" stroke="#10b981" stroke-width="1" fill="none" opacity="0.6"/>
  <path d="M145,125 Q147,123 149,125" stroke="#10b981" stroke-width="1" fill="none" opacity="0.6"/>
  <path d="M185,115 Q187,113 189,115" stroke="#10b981" stroke-width="1" fill="none" opacity="0.6"/>
</svg> 