<svg xmlns="http://www.w3.org/2000/svg" viewBox="0 0 250 120" width="250" height="120">
  <!-- Doodle Tree 1 -->
  <path d="M25,115 Q20,110 22,105 Q18,100 25,95 Q22,90 30,85 Q28,80 35,85 Q40,82 38,90 Q42,95 35,100 Q38,105 32,110 Q35,115 25,115" 
        fill="#10b981" stroke="#059669" stroke-width="1.5" fill-rule="nonzero"/>
  <path d="M27,115 Q26,118 25,120 Q24,118 23,120 Q25,118 27,115" 
        fill="#92400e" stroke="#78350f" stroke-width="1"/>
  
  <!-- Doodle Tree 2 -->
  <path d="M50,110 Q45,105 48,100 Q44,95 52,90 Q48,85 55,80 Q52,75 60,75 Q65,72 68,80 Q70,85 65,90 Q68,95 62,100 Q65,105 58,110 Q60,115 50,110" 
        fill="#10b981" stroke="#059669" stroke-width="1.5"/>
  <path d="M56,110 Q55,115 54,118 Q53,115 52,118 Q54,115 56,110" 
        fill="#92400e" stroke="#78350f" stroke-width="1"/>
  
  <!-- Doodle Tree 3 -->
  <path d="M95,115 Q90,110 93,105 Q88,100 96,95 Q92,90 100,85 Q97,80 105,80 Q110,77 112,85 Q115,90 110,95 Q113,100 107,105 Q110,110 102,115 Q105,120 95,115" 
        fill="#10b981" stroke="#059669" stroke-width="1.5"/>
  <path d="M101,115 Q100,118 99,120 Q98,118 97,120 Q99,118 101,115" 
        fill="#92400e" stroke="#78350f" stroke-width="1"/>
  
  <!-- Doodle Tree 4 -->
  <path d="M140,112 Q135,107 138,102 Q134,97 142,92 Q138,87 145,82 Q142,77 150,75 Q155,72 158,80 Q160,85 155,90 Q158,95 152,100 Q155,105 148,110 Q150,115 140,112" 
        fill="#10b981" stroke="#059669" stroke-width="1.5"/>
  <path d="M146,112 Q145,116 144,118 Q143,116 142,118 Q144,116 146,112" 
        fill="#92400e" stroke="#78350f" stroke-width="1"/>
  
  <!-- Doodle Tree 5 -->
  <path d="M185,110 Q180,105 183,100 Q178,95 186,90 Q182,85 190,80 Q187,75 195,73 Q200,70 203,78 Q205,83 200,88 Q203,93 197,98 Q200,103 193,108 Q195,113 185,110" 
        fill="#10b981" stroke="#059669" stroke-width="1.5"/>
  <path d="M191,110 Q190,114 189,116 Q188,114 187,116 Q189,114 191,110" 
        fill="#92400e" stroke="#78350f" stroke-width="1"/>
  
  <!-- Doodle Tree 6 -->
  <path d="M220,108 Q215,103 218,98 Q214,93 222,88 Q218,83 225,78 Q222,73 230,71 Q235,68 238,76 Q240,81 235,86 Q238,91 232,96 Q235,101 228,106 Q230,111 220,108" 
        fill="#10b981" stroke="#059669" stroke-width="1.5"/>
  <path d="M226,108 Q225,112 224,114 Q223,112 222,114 Q224,112 226,108" 
        fill="#92400e" stroke="#78350f" stroke-width="1"/>
  
  <!-- Scattered leaves -->
  <circle cx="35" cy="70" r="2" fill="#10b981" opacity="0.6"/>
  <circle cx="75" cy="65" r="1.5" fill="#059669" opacity="0.7"/>
  <circle cx="125" cy="72" r="2" fill="#10b981" opacity="0.5"/>
  <circle cx="165" cy="68" r="1.5" fill="#059669" opacity="0.6"/>
</svg> 