<svg xmlns="http://www.w3.org/2000/svg" viewBox="0 0 160 120" width="160" height="120">
  <!-- Doodle cart body -->
  <path d="M22,62 Q25,60 30,61 Q40,62 50,61 Q60,60 70,61 Q80,62 90,61 Q100,60 110,61 Q120,62 130,61 Q135,60 138,62 Q140,64 138,66 Q135,68 130,70 Q120,72 110,74 Q100,76 90,74 Q80,72 70,74 Q60,76 50,74 Q40,72 30,74 Q25,76 22,74 Q20,72 22,70 Q24,68 22,66 Q20,64 22,62" 
        fill="#059669" stroke="#047857" stroke-width="2"/>
  
  <path d="M22,74 Q25,76 30,77 Q40,78 50,77 Q60,76 70,77 Q80,78 90,77 Q100,76 110,77 Q120,78 130,77 Q135,76 138,78 Q140,80 138,95 Q135,97 130,98 Q120,99 110,98 Q100,97 90,98 Q80,99 70,98 Q60,97 50,98 Q40,99 30,98 Q25,97 22,95 Q20,93 22,80 Q24,78 22,76 Q20,74 22,74" 
        fill="#059669" stroke="#047857" stroke-width="2"/>
  
  <!-- Doodle cart roof -->
  <path d="M18,58 Q25,55 35,52 Q45,49 55,47 Q65,45 75,43 Q85,41 95,43 Q105,45 115,47 Q125,49 135,52 Q145,55 152,58 Q148,56 138,54 Q128,52 118,50 Q108,48 98,46 Q88,44 78,46 Q68,48 58,50 Q48,52 38,54 Q28,56 18,58" 
        fill="#f59e0b" stroke="#d97706" stroke-width="2"/>
  
  <!-- Wiggly wheels -->
  <circle cx="40" cy="110" r="12" fill="#374151" stroke="#1f2937" stroke-width="2"/>
  <circle cx="40" cy="110" r="8" fill="#6b7280" stroke="#4b5563" stroke-width="1.5"/>
  <circle cx="40" cy="110" r="4" fill="#9ca3af"/>
  
  <circle cx="120" cy="110" r="12" fill="#374151" stroke="#1f2937" stroke-width="2"/>
  <circle cx="120" cy="110" r="8" fill="#6b7280" stroke="#4b5563" stroke-width="1.5"/>
  <circle cx="120" cy="110" r="4" fill="#9ca3af"/>
  
  <!-- Wheel spokes -->
  <path d="M35,110 Q40,105 45,110 Q40,115 35,110" stroke="#9ca3af" stroke-width="1" fill="none"/>
  <path d="M40,105 Q45,110 40,115 Q35,110 40,105" stroke="#9ca3af" stroke-width="1" fill="none"/>
  
  <path d="M115,110 Q120,105 125,110 Q120,115 115,110" stroke="#9ca3af" stroke-width="1" fill="none"/>
  <path d="M120,105 Q125,110 120,115 Q115,110 120,105" stroke="#9ca3af" stroke-width="1" fill="none"/>
  
  <!-- Doodle handle -->
  <path d="M138,78 Q142,76 148,78 Q152,80 155,82 Q157,84 155,86 Q152,84 148,82 Q142,80 138,82" 
        stroke="#92400e" stroke-width="4" fill="none"/>
  
  <!-- Doodle products in cart -->
  <circle cx="50" cy="75" r="5" fill="#dc2626" stroke="#b91c1c" stroke-width="1.5"/>
  <circle cx="70" cy="73" r="4" fill="#16a34a" stroke="#15803d" stroke-width="1.5"/>
  <circle cx="90" cy="76" r="5" fill="#2563eb" stroke="#1d4ed8" stroke-width="1.5"/>
  <circle cx="110" cy="74" r="4" fill="#ca8a04" stroke="#a16207" stroke-width="1.5"/>
  <circle cx="130" cy="75" r="5" fill="#9333ea" stroke="#7c3aed" stroke-width="1.5"/>
  
  <!-- Product highlights -->
  <circle cx="50" cy="73" r="2" fill="#fca5a5" opacity="0.8"/>
  <circle cx="70" cy="71" r="1.5" fill="#86efac" opacity="0.8"/>
  <circle cx="90" cy="74" r="2" fill="#93c5fd" opacity="0.8"/>
  <circle cx="110" cy="72" r="1.5" fill="#fde047" opacity="0.8"/>
  <circle cx="130" cy="73" r="2" fill="#c4b5fd" opacity="0.8"/>
  
  <!-- Cart support struts -->
  <path d="M30,95 Q35,105 40,110" stroke="#047857" stroke-width="2" fill="none"/>
  <path d="M130,95 Q125,105 120,110" stroke="#047857" stroke-width="2" fill="none"/>
</svg> 